<svg width="232" height="49" viewBox="0 0 232 49" fill="none" xmlns="http://www.w3.org/2000/svg">
<path d="M225.443 20.4001C225.443 21.2522 225.676 21.8995 226.142 22.3421C226.608 22.7737 227.307 22.9895 228.239 22.9895C228.727 22.9895 229.22 22.9508 229.72 22.8733C230.23 22.7848 230.823 22.652 231.5 22.4749V22.8567C230.657 23.2883 229.98 23.6147 229.47 23.836C228.96 24.0574 228.522 24.2068 228.156 24.2842C227.801 24.3617 227.418 24.4004 227.007 24.4004C226.397 24.4004 225.837 24.2732 225.327 24.0186C224.817 23.7531 224.406 23.3602 224.096 22.8401C223.785 22.3089 223.63 21.6339 223.63 20.815V9.92616L221.616 8.91362V8.71444C221.871 8.57058 222.104 8.43779 222.315 8.31606C222.537 8.18327 222.748 8.05601 222.947 7.93429C223.158 7.8015 223.375 7.66871 223.596 7.53591C223.829 7.39206 224.079 7.24267 224.345 7.08774C224.611 6.92176 224.922 6.73363 225.277 6.52338H225.443V8.94682V20.4001ZM224.711 9.59418V8.38246H231.018L230.801 9.59418H224.711Z" fill="#113975"/>
<path d="M214.31 9.59417L213.578 9.76016L210.233 9.37839V8.99661L213.794 8.31606L214.193 8.38245H220.733L220.516 9.59417H214.31ZM215.275 23.3547L218.054 23.8194V24.168H210.949V23.8194L213.428 23.3547V7.88448C213.428 6.51231 213.639 5.33379 214.06 4.34892C214.493 3.35298 215.064 2.5341 215.774 1.89228C216.495 1.25045 217.31 0.774616 218.22 0.46477C219.141 0.154923 220.089 0 221.065 0C221.565 0 222.003 0.0387306 222.38 0.116192C222.757 0.182588 223.073 0.282182 223.328 0.414972C223.583 0.547765 223.772 0.708221 223.894 0.896342C224.027 1.0734 224.094 1.27812 224.094 1.5105C224.094 1.80928 223.988 2.0804 223.778 2.32385C223.567 2.5673 223.284 2.68902 222.929 2.68902C222.774 2.68902 222.591 2.6005 222.38 2.42344C222.169 2.24639 221.92 2.0472 221.631 1.82588C221.343 1.5935 221.01 1.39431 220.633 1.22832C220.256 1.05126 219.817 0.962736 219.318 0.962736C218.52 0.962736 217.815 1.16192 217.205 1.5603C216.595 1.94761 216.118 2.54517 215.774 3.35298C215.441 4.14973 215.275 5.1678 215.275 6.40718V23.3547Z" fill="#113975"/>
<path d="M201.089 23.836C202.199 23.836 203.169 23.5483 204.001 22.9729C204.833 22.3864 205.482 21.5343 205.948 20.4167C206.425 19.299 206.663 17.9434 206.663 16.3499C206.663 14.7786 206.43 13.423 205.965 12.2832C205.499 11.1434 204.844 10.2637 204.001 9.64397C203.169 9.02428 202.187 8.71443 201.056 8.71443C199.958 8.71443 198.987 9.00768 198.144 9.59418C197.312 10.1807 196.663 11.0327 196.197 12.1504C195.731 13.257 195.498 14.607 195.498 16.2005C195.498 17.7719 195.726 19.133 196.181 20.2839C196.647 21.4237 197.301 22.3034 198.144 22.9231C198.987 23.5317 199.969 23.836 201.089 23.836ZM201.039 24.5C199.631 24.5 198.355 24.168 197.212 23.5041C196.07 22.829 195.16 21.8829 194.483 20.6657C193.807 19.4484 193.468 18.0264 193.468 16.3997C193.468 14.7066 193.801 13.2404 194.467 12.001C195.143 10.7506 196.059 9.7823 197.212 9.09621C198.366 8.39905 199.669 8.05048 201.122 8.05048C202.531 8.05048 203.807 8.38799 204.95 9.06301C206.092 9.72697 206.996 10.6676 207.662 11.8848C208.338 13.091 208.677 14.5185 208.677 16.1673C208.677 17.8383 208.338 19.3045 207.662 20.5661C206.996 21.8165 206.087 22.7848 204.933 23.4709C203.779 24.157 202.481 24.5 201.039 24.5Z" fill="#113975"/>
<path d="M191.436 8.11687C191.835 8.11687 192.129 8.222 192.318 8.43225C192.517 8.6425 192.617 8.91915 192.617 9.2622C192.617 9.66057 192.495 9.98148 192.251 10.2249C192.007 10.4684 191.68 10.5901 191.269 10.5901C191.059 10.5901 190.865 10.568 190.687 10.5237C190.51 10.4684 190.315 10.4186 190.105 10.3743C189.905 10.319 189.655 10.2913 189.356 10.2913C189.023 10.2913 188.696 10.3411 188.374 10.4407C188.053 10.5403 187.703 10.7063 187.326 10.9387C186.96 11.16 186.538 11.4699 186.061 11.8682L185.928 11.4533C186.771 10.734 187.487 10.153 188.075 9.71037C188.663 9.26773 189.156 8.93575 189.556 8.71443C189.966 8.48205 190.315 8.32712 190.604 8.24966C190.903 8.16113 191.181 8.11687 191.436 8.11687ZM186.294 11.2375V23.3547L189.04 23.8194V24.168H182.001V23.8194L184.481 23.3547V10.1087C184.336 10.0423 184.137 9.97042 183.882 9.89296C183.638 9.81549 183.344 9.72143 183 9.61077C182.667 9.50011 182.295 9.38392 181.885 9.2622V8.94682L186.111 7.95088H186.261L186.294 11.2375Z" fill="#113975"/>
<path d="M172.355 23.8195C173.298 23.8195 174.247 23.6922 175.201 23.4377C176.166 23.1832 177.064 22.7959 177.896 22.2758L177.064 23.1389L179.477 18.3418H179.926L178.961 23.3215C178.063 23.6867 177.042 23.9744 175.899 24.1846C174.757 24.3949 173.581 24.5 172.372 24.5C170.575 24.5 168.911 24.24 167.38 23.7199C165.849 23.1998 164.507 22.4362 163.353 21.4292C162.211 20.4222 161.323 19.1773 160.691 17.6945C160.059 16.2116 159.743 14.513 159.743 12.5986C159.743 10.1973 160.259 8.11135 161.29 6.3408C162.322 4.55918 163.781 3.18147 165.666 2.20767C167.552 1.2228 169.771 0.730364 172.322 0.730364C173.254 0.730364 174.169 0.813359 175.067 0.979348C175.966 1.13427 176.903 1.37772 177.88 1.7097H176.931L178.212 0.232397H178.379L179.693 7.7849L179.277 7.8679L176.665 2.40685L177.813 3.50238C176.67 2.79416 175.594 2.29066 174.585 1.99188C173.587 1.6931 172.549 1.54371 171.473 1.54371C170.054 1.54371 168.756 1.76503 167.58 2.20767C166.404 2.63924 165.389 3.29213 164.535 4.16634C163.681 5.04055 163.021 6.14161 162.555 7.46952C162.089 8.78637 161.856 10.3301 161.856 12.1006C161.856 14.015 162.128 15.7026 162.671 17.1633C163.226 18.624 163.986 19.8468 164.951 20.8316C165.916 21.8165 167.031 22.5635 168.295 23.0725C169.56 23.5705 170.913 23.8195 172.355 23.8195Z" fill="#113975"/>
<path d="M137.092 11.2873L136.077 11.7354C134.967 12.3551 134.091 12.9914 133.448 13.6443C132.804 14.2861 132.344 14.9778 132.066 15.7192C131.789 16.4495 131.651 17.2573 131.651 18.1426C131.651 19.1828 131.878 20.0792 132.333 20.8316C132.788 21.5731 133.431 22.143 134.263 22.5413C135.106 22.9397 136.093 23.1389 137.225 23.1389C138.467 23.1389 139.632 22.8733 140.719 22.3421C141.806 21.811 142.771 20.9755 143.614 19.8357L143.914 19.4041C144.535 18.4746 145.084 17.3237 145.561 15.9516C146.049 14.5794 146.426 12.9306 146.692 11.0051L143.93 10.4905V10.0921H150.802V10.4905L148.057 11.0051C147.547 13.0301 146.975 14.7841 146.343 16.2669C145.722 17.7498 145.062 19.0058 144.363 20.0349L144.063 20.4333C143.387 21.3628 142.655 22.1264 141.867 22.7239C141.079 23.3215 140.231 23.7696 139.321 24.0684C138.412 24.3561 137.43 24.5 136.376 24.5C134.989 24.5 133.808 24.251 132.832 23.753C131.856 23.244 131.107 22.5524 130.586 21.6782C130.075 20.7929 129.82 19.7914 129.82 18.6738C129.82 17.6225 130.025 16.6653 130.436 15.8022C130.846 14.928 131.49 14.1201 132.366 13.3787C133.253 12.6262 134.407 11.907 135.827 11.2209L136.709 10.8059C138.295 9.88742 139.421 8.97448 140.087 8.06707C140.763 7.1486 141.102 6.14713 141.102 5.06267C141.102 3.94501 140.797 3.05973 140.186 2.40684C139.587 1.74289 138.717 1.41091 137.574 1.41091C136.476 1.41091 135.566 1.72629 134.845 2.35705C134.135 2.98781 133.78 3.83988 133.78 4.91328C133.78 5.46658 133.858 6.00328 134.013 6.52337C134.18 7.03241 134.457 7.58017 134.845 8.16667C135.245 8.75316 135.794 9.43925 136.493 10.2249L148.123 23.1721L151.418 23.8194V24.168H146.676L135.344 11.4699C134.512 10.5403 133.875 9.73803 133.431 9.06301C132.987 8.37692 132.682 7.75723 132.516 7.20393C132.349 6.65063 132.266 6.10287 132.266 5.56064C132.266 4.62003 132.482 3.79009 132.915 3.0708C133.348 2.35151 133.963 1.78162 134.762 1.36111C135.572 0.940607 136.537 0.730354 137.657 0.730354C138.755 0.730354 139.671 0.929541 140.403 1.32792C141.135 1.71522 141.684 2.23532 142.05 2.88821C142.427 3.53004 142.616 4.23272 142.616 4.99627C142.616 5.54957 142.516 6.0918 142.316 6.62297C142.117 7.14307 141.8 7.65763 141.368 8.16667C140.935 8.6757 140.369 9.19027 139.671 9.71037C138.972 10.2194 138.112 10.745 137.092 11.2873Z" fill="#113975"/>
<path d="M106.738 10.8557V23.3547L109.201 23.8194V24.168H102.445V23.8194L104.924 23.3547V10.1087C104.747 10.0313 104.458 9.93169 104.059 9.80996C103.66 9.67717 103.083 9.49458 102.329 9.2622V8.94682L106.505 7.95088H106.655L106.738 10.8557ZM112.994 23.8194L115.474 23.3547V13.7605C115.474 12.7314 115.346 11.9125 115.091 11.3039C114.836 10.6952 114.431 10.2581 113.876 9.99255C113.322 9.72697 112.578 9.59417 111.647 9.59417C110.781 9.59417 109.883 9.74356 108.951 10.0423C108.03 10.3411 107.215 10.7561 106.505 11.2873L106.239 11.0051C107.015 10.3965 107.703 9.89849 108.302 9.51118C108.901 9.12387 109.45 8.82509 109.949 8.61484C110.448 8.40459 110.925 8.26073 111.38 8.18327C111.835 8.09474 112.307 8.05048 112.795 8.05048C114.403 8.05048 115.551 8.46545 116.239 9.29539C116.938 10.1143 117.287 11.4588 117.287 13.3289V23.3547L119.75 23.8194V24.168H112.994V23.8194Z" fill="#113975"/>
<path d="M92.7716 23.836C93.8809 23.836 94.8515 23.5483 95.6835 22.9729C96.5154 22.3864 97.1644 21.5343 97.6302 20.4167C98.1072 19.299 98.3457 17.9434 98.3457 16.3499C98.3457 14.7786 98.1128 13.423 97.6469 12.2832C97.181 11.1434 96.5265 10.2637 95.6835 9.64397C94.8515 9.02428 93.8698 8.71443 92.7383 8.71443C91.6401 8.71443 90.6695 9.00768 89.8264 9.59418C88.9945 10.1807 88.3455 11.0327 87.8796 12.1504C87.4137 13.257 87.1808 14.607 87.1808 16.2005C87.1808 17.7719 87.4082 19.133 87.863 20.2839C88.3289 21.4237 88.9834 22.3034 89.8264 22.9231C90.6695 23.5317 91.6512 23.836 92.7716 23.836ZM92.7217 24.5C91.3129 24.5 90.0372 24.168 88.8946 23.5041C87.7521 22.829 86.8425 21.8829 86.1658 20.6657C85.4891 19.4484 85.1508 18.0264 85.1508 16.3997C85.1508 14.7066 85.4836 13.2404 86.1492 12.001C86.8258 10.7506 87.741 9.7823 88.8946 9.09621C90.0483 8.39905 91.3517 8.05048 92.8049 8.05048C94.2137 8.05048 95.4893 8.38799 96.6319 9.06301C97.7745 9.72697 98.6785 10.6676 99.3441 11.8848C100.021 13.091 100.359 14.5185 100.359 16.1673C100.359 17.8383 100.021 19.3045 99.3441 20.5661C98.6785 21.8165 97.7689 22.7848 96.6153 23.4709C95.4616 24.157 94.1637 24.5 92.7217 24.5Z" fill="#113975"/>
<path d="M78.083 8.05048C78.7597 8.05048 79.3698 8.12794 79.9133 8.28286C80.4569 8.42672 81.0226 8.66464 81.6105 8.99662L82.0598 13.0468H81.6605L79.9466 8.98002L80.7786 9.92615C80.3016 9.49458 79.8412 9.18474 79.3975 8.99662C78.9538 8.80849 78.4657 8.71443 77.9333 8.71443C76.8018 8.71443 75.9421 8.97448 75.3542 9.49458C74.7774 10.0147 74.489 10.7063 74.489 11.5694C74.489 12.1117 74.611 12.582 74.855 12.9804C75.1102 13.3787 75.515 13.7439 76.0697 14.0759C76.6354 14.3968 77.3842 14.7288 78.316 15.0718C79.0148 15.3263 79.6249 15.603 80.1463 15.9018C80.6677 16.2005 81.1003 16.5381 81.4442 16.9143C81.788 17.2795 82.0432 17.7 82.2096 18.1758C82.387 18.6406 82.4758 19.1773 82.4758 19.7859C82.4758 20.7044 82.2317 21.5177 81.7437 22.2259C81.2667 22.9342 80.6122 23.493 79.7802 23.9024C78.9594 24.3008 78.0165 24.5 76.9516 24.5C76.2194 24.5 75.5483 24.4336 74.9382 24.3008C74.3281 24.1791 73.7568 23.9965 73.2244 23.753L72.4423 19.2713H72.8583L74.8883 23.7364L73.9898 22.9231C74.2671 23.1223 74.5611 23.2883 74.8717 23.4211C75.1933 23.5539 75.5317 23.659 75.8866 23.7364C76.2527 23.8028 76.641 23.836 77.0514 23.836C78.2272 23.836 79.1757 23.5262 79.8967 22.9065C80.6177 22.2757 80.9783 21.4347 80.9783 20.3835C80.9783 19.9076 80.8951 19.4927 80.7287 19.1386C80.5623 18.7734 80.3127 18.4469 79.9799 18.1592C79.6582 17.8715 79.2422 17.6059 78.732 17.3625C78.2328 17.108 77.6449 16.8534 76.9682 16.5989C76.0697 16.2559 75.332 15.8852 74.7552 15.4868C74.1784 15.0884 73.7513 14.6236 73.474 14.0925C73.1966 13.5613 73.058 12.9306 73.058 12.2002C73.058 11.3592 73.2854 10.6288 73.7402 10.0091C74.195 9.38946 74.7996 8.90809 75.5539 8.56504C76.3193 8.222 77.1623 8.05048 78.083 8.05048Z" fill="#113975"/>
<path d="M65.6036 8.05048C66.2803 8.05048 66.8904 8.12794 67.4339 8.28286C67.9775 8.42672 68.5432 8.66464 69.1311 8.99662L69.5804 13.0468H69.181L67.4672 8.98002L68.2992 9.92615C67.8222 9.49458 67.3618 9.18474 66.9181 8.99662C66.4744 8.80849 65.9863 8.71443 65.4538 8.71443C64.3224 8.71443 63.4627 8.97448 62.8748 9.49458C62.2979 10.0147 62.0095 10.7063 62.0095 11.5694C62.0095 12.1117 62.1315 12.582 62.3756 12.9804C62.6307 13.3787 63.0356 13.7439 63.5902 14.0759C64.156 14.3968 64.9047 14.7288 65.8365 15.0718C66.5354 15.3263 67.1455 15.603 67.6669 15.9018C68.1882 16.2005 68.6208 16.5381 68.9647 16.9143C69.3086 17.2795 69.5637 17.7 69.7301 18.1758C69.9076 18.6406 69.9964 19.1773 69.9964 19.7859C69.9964 20.7044 69.7523 21.5177 69.2642 22.2259C68.7872 22.9342 68.1328 23.493 67.3008 23.9024C66.4799 24.3008 65.537 24.5 64.4721 24.5C63.74 24.5 63.0689 24.4336 62.4588 24.3008C61.8487 24.1791 61.2774 23.9965 60.7449 23.753L59.9629 19.2713H60.3789L62.4089 23.7364L61.5103 22.9231C61.7877 23.1223 62.0816 23.2883 62.3922 23.4211C62.7139 23.5539 63.0522 23.659 63.4072 23.7364C63.7733 23.8028 64.1615 23.836 64.572 23.836C65.7478 23.836 66.6962 23.5262 67.4173 22.9065C68.1383 22.2757 68.4988 21.4347 68.4988 20.3835C68.4988 19.9076 68.4156 19.4927 68.2492 19.1386C68.0828 18.7734 67.8333 18.4469 67.5005 18.1592C67.1788 17.8715 66.7628 17.6059 66.2525 17.3625C65.7533 17.108 65.1654 16.8534 64.4888 16.5989C63.5902 16.2559 62.8526 15.8852 62.2757 15.4868C61.6989 15.0884 61.2718 14.6236 60.9945 14.0925C60.7172 13.5613 60.5785 12.9306 60.5785 12.2002C60.5785 11.3592 60.8059 10.6288 61.2608 10.0091C61.7156 9.38946 62.3201 8.90809 63.0744 8.56504C63.8398 8.222 64.6829 8.05048 65.6036 8.05048Z" fill="#113975"/>
<path d="M54.6186 3.22035C54.1194 3.22035 53.7256 3.05989 53.4372 2.73898C53.1488 2.41807 53.0046 2.04183 53.0046 1.61025C53.0046 1.18975 53.1488 0.824571 53.4372 0.514725C53.7256 0.193812 54.1194 0.0333557 54.6186 0.0333557C55.1067 0.0333557 55.495 0.193812 55.7834 0.514725C56.0718 0.824571 56.216 1.18975 56.216 1.61025C56.216 2.04183 56.0718 2.41807 55.7834 2.73898C55.495 3.05989 55.1067 3.22035 54.6186 3.22035ZM55.7667 7.95104L55.7002 9.90971V23.3548L58.1628 23.8196V24.1682H51.4072V23.8196L53.8865 23.3548V10.0757C53.7645 10.0314 53.5648 9.95951 53.2875 9.85991C53.0102 9.76032 52.694 9.65519 52.339 9.54453C51.9841 9.42281 51.6346 9.31215 51.2908 9.21256V8.88058L55.617 7.95104H55.7667Z" fill="#113975"/>
<path d="M49.0923 8.11687C49.4916 8.11687 49.7856 8.222 49.9742 8.43225C50.1739 8.6425 50.2737 8.91915 50.2737 9.2622C50.2737 9.66057 50.1517 9.98148 49.9076 10.2249C49.6636 10.4684 49.3364 10.5901 48.9259 10.5901C48.7152 10.5901 48.521 10.568 48.3435 10.5237C48.1661 10.4684 47.9719 10.4186 47.7612 10.3743C47.5615 10.319 47.3119 10.2913 47.0124 10.2913C46.6796 10.2913 46.3524 10.3411 46.0307 10.4407C45.709 10.5403 45.3596 10.7063 44.9824 10.9387C44.6163 11.16 44.1948 11.4699 43.7178 11.8682L43.5847 11.4533C44.4278 10.734 45.1433 10.153 45.7312 9.71037C46.3191 9.26773 46.8127 8.93575 47.2121 8.71443C47.6225 8.48205 47.9719 8.32712 48.2603 8.24966C48.5598 8.16113 48.8372 8.11687 49.0923 8.11687ZM43.9508 11.2375V23.3547L46.6963 23.8194V24.168H39.6579V23.8194L42.1371 23.3547V10.1087C41.9929 10.0423 41.7932 9.97042 41.5381 9.89296C41.2941 9.81549 41.0001 9.72143 40.6562 9.61077C40.3234 9.50011 39.9518 9.38392 39.5414 9.2622V8.94682L43.7677 7.95088H43.9175L43.9508 11.2375Z" fill="#113975"/>
<path d="M34.5896 14.0925L34.6728 14.7232C32.898 15.2433 31.4781 15.7247 30.4132 16.1673C29.3594 16.61 28.5607 17.0416 28.0171 17.4621C27.4847 17.8826 27.1297 18.3197 26.9522 18.7734C26.7858 19.216 26.7026 19.6974 26.7026 20.2175C26.7026 21.1581 26.9855 21.894 27.5512 22.4251C28.117 22.9452 28.8657 23.2053 29.7975 23.2053C30.5297 23.2053 31.2008 23.0448 31.8109 22.7239C32.421 22.3919 32.9035 21.9438 33.2585 21.3794C33.6246 20.815 33.8076 20.1787 33.8076 19.4705V12.665C33.8076 11.5473 33.5358 10.6786 32.9923 10.0589C32.4598 9.42818 31.5724 9.1128 30.33 9.1128C29.7643 9.1128 29.1819 9.18473 28.5829 9.32859C27.9839 9.46138 27.3571 9.67163 26.7026 9.95935L27.6843 9.34519C27.64 9.71037 27.5845 10.0589 27.518 10.3909C27.4514 10.7118 27.3793 10.994 27.3016 11.2375C27.224 11.4699 27.1297 11.6414 27.0188 11.752C26.8968 11.8959 26.7193 12.0065 26.4863 12.084C26.2645 12.1615 26.0426 12.2002 25.8208 12.2002C25.5212 12.2002 25.2883 12.1393 25.1219 12.0176C24.9555 11.8848 24.8723 11.7022 24.8723 11.4699C24.8723 11.1157 25.072 10.745 25.4713 10.3577C25.8818 9.97041 26.4031 9.61077 27.0354 9.27879C27.6677 8.93575 28.3388 8.6591 29.0488 8.44885C29.7698 8.2386 30.4465 8.13347 31.0788 8.13347C32.2324 8.13347 33.1365 8.31052 33.791 8.66463C34.4565 9.00768 34.928 9.50011 35.2053 10.1419C35.4826 10.7838 35.6213 11.5418 35.6213 12.416V21.4292C35.6213 21.8718 35.6878 22.2259 35.8209 22.4915C35.9541 22.7571 36.1371 22.9452 36.37 23.0559C36.603 23.1666 36.8637 23.2219 37.1521 23.2219C37.4849 23.2219 37.7955 23.1776 38.0839 23.0891C38.3834 23.0006 38.7273 22.8346 39.1155 22.5911V22.9729C38.6163 23.5041 38.1282 23.8858 37.6513 24.1182C37.1854 24.3395 36.7028 24.4502 36.2036 24.4502C35.6157 24.4502 35.1387 24.334 34.7727 24.1016C34.4066 23.8582 34.1459 23.4543 33.9906 22.8899C33.8353 22.3145 33.7743 21.5288 33.8076 20.5329L33.9074 20.4665C33.6967 21.3407 33.3583 22.0766 32.8924 22.6741C32.4376 23.2717 31.8885 23.7254 31.2451 24.0352C30.6018 24.3451 29.9085 24.5 29.1652 24.5C27.8674 24.5 26.8136 24.1625 26.0038 23.4875C25.194 22.8124 24.7891 21.8276 24.7891 20.5329C24.7891 19.891 24.9001 19.3101 25.1219 18.79C25.3549 18.2699 25.8041 17.7719 26.4697 17.2961C27.1353 16.8202 28.117 16.3278 29.4148 15.8188C30.7238 15.2987 32.4487 14.7232 34.5896 14.0925Z" fill="#113975"/>
<path d="M20.101 22.2592L21.5819 22.6575V22.7903C20.7943 23.1444 19.9235 23.4487 18.9696 23.7033C18.0267 23.9578 17.056 24.1514 16.0577 24.2842C15.0704 24.4281 14.1054 24.5 13.1625 24.5C11.3876 24.5 9.73478 24.24 8.20397 23.7199C6.67316 23.1998 5.32538 22.4362 4.16063 21.4292C3.00698 20.4222 2.10846 19.1773 1.46508 17.6945C0.821692 16.2116 0.5 14.513 0.5 12.5986C0.5 10.1973 1.01027 8.11135 2.03081 6.3408C3.06244 4.55918 4.51006 3.18147 6.37365 2.20767C8.24834 1.2228 10.4558 0.730364 12.9961 0.730364C14.0277 0.730364 15.0205 0.818892 15.9745 0.995947C16.9396 1.173 17.888 1.43305 18.8198 1.7761L17.5885 1.7595L18.903 0.232397H19.0528L20.3839 7.7849L19.9513 7.8679L17.1725 2.15787L18.9862 3.88416C17.8436 3.09848 16.7233 2.51198 15.6251 2.12467C14.5269 1.73737 13.3677 1.54371 12.1475 1.54371C10.7276 1.54371 9.43527 1.7595 8.27053 2.19107C7.10578 2.62264 6.09633 3.27553 5.24218 4.14974C4.39913 5.02395 3.7502 6.11948 3.29539 7.43633C2.84059 8.74211 2.61318 10.2747 2.61318 12.0342C2.61318 14.6237 3.08463 16.7926 4.02752 18.541C4.9815 20.2894 6.25718 21.6063 7.85455 22.4915C9.45191 23.3768 11.2157 23.8195 13.1458 23.8195C13.8447 23.8195 14.5491 23.7586 15.259 23.6369C15.98 23.5151 16.6456 23.3381 17.2557 23.1057C17.8769 22.8623 18.3872 22.5745 18.7865 22.2426L18.1875 23.3547V14.8228L14.6766 14.2253V13.8435H22.4139V14.2253L20.101 14.7896V22.2592Z" fill="#113975"/>
<path d="M227.267 48.8726V45.2618L224.408 40.9608H225.202L227.778 44.7945H227.462L230.027 40.9608H230.821L227.973 45.2618V48.8726H227.267Z" fill="#113975"/>
<path d="M215.167 48.8726V40.9608H215.765L220.667 47.8318H220.438V40.9608H221.145V48.8726H220.547L215.624 41.959H215.874V48.8726H215.167Z" fill="#113975"/>
<path d="M205.219 48.8726L208.196 40.9608H208.924L211.902 48.8726H211.142L210.403 46.8548H206.718L205.968 48.8726H205.219ZM206.947 46.2176H210.163L208.425 41.4918H208.685L206.947 46.2176Z" fill="#113975"/>
<path d="M197.644 48.8726V40.9608H200.361C200.875 40.9608 201.328 41.0599 201.719 41.2581C202.11 41.4564 202.415 41.736 202.632 42.0971C202.857 42.4582 202.969 42.8759 202.969 43.3502C202.969 43.8246 202.857 44.2423 202.632 44.6034C202.415 44.9574 202.11 45.237 201.719 45.4424C201.335 45.6406 200.882 45.7397 200.361 45.7397H198.35V48.8726H197.644ZM198.35 45.1025H200.382C200.752 45.1025 201.078 45.0317 201.361 44.8901C201.643 44.7414 201.864 44.5361 202.023 44.2742C202.183 44.0051 202.263 43.6936 202.263 43.3396C202.263 42.9856 202.183 42.6812 202.023 42.4263C201.864 42.1644 201.643 41.9626 201.361 41.821C201.078 41.6723 200.752 41.598 200.382 41.598H198.35V45.1025Z" fill="#113975"/>
<path d="M186.589 48.8726V40.9608H187.187L190.208 45.3574H189.915L192.947 40.9608H193.545V48.8726H192.838V41.9697L193.012 42.0652L190.078 46.345H190.045L187.111 42.0652L187.296 41.9697V48.8726H186.589Z" fill="#113975"/>
<path d="M178.723 49C178.165 49 177.643 48.9009 177.158 48.7026C176.672 48.4973 176.245 48.2141 175.875 47.853C175.513 47.4849 175.227 47.053 175.017 46.5574C174.814 46.0548 174.712 45.5061 174.712 44.9114C174.712 44.3096 174.814 43.7609 175.017 43.2653C175.227 42.7697 175.517 42.3413 175.886 41.9803C176.256 41.6121 176.679 41.3289 177.158 41.1307C177.643 40.9324 178.165 40.8333 178.723 40.8333C179.273 40.8333 179.791 40.9324 180.277 41.1307C180.762 41.3289 181.186 41.6121 181.548 41.9803C181.918 42.3413 182.208 42.7732 182.418 43.2759C182.628 43.7715 182.733 44.3166 182.733 44.9114C182.733 45.5061 182.628 46.0548 182.418 46.5574C182.208 47.053 181.918 47.4849 181.548 47.853C181.186 48.2141 180.762 48.4973 180.277 48.7026C179.791 48.9009 179.273 49 178.723 49ZM178.723 48.3416C179.208 48.3416 179.654 48.2531 180.059 48.0761C180.465 47.8991 180.813 47.6513 181.103 47.3327C181.4 47.0141 181.628 46.6495 181.787 46.2388C181.947 45.8211 182.026 45.3786 182.026 44.9114C182.026 44.4512 181.947 44.0157 181.787 43.6051C181.628 43.1874 181.4 42.8192 181.103 42.5006C180.813 42.182 180.465 41.9343 180.059 41.7573C179.661 41.5732 179.215 41.4811 178.723 41.4811C178.23 41.4811 177.781 41.5732 177.375 41.7573C176.976 41.9343 176.629 42.182 176.332 42.5006C176.042 42.8192 175.817 43.1874 175.658 43.6051C175.498 44.0157 175.419 44.4512 175.419 44.9114C175.419 45.3786 175.498 45.8211 175.658 46.2388C175.817 46.6495 176.042 47.0141 176.332 47.3327C176.629 47.6513 176.98 47.8991 177.386 48.0761C177.792 48.2531 178.237 48.3416 178.723 48.3416Z" fill="#113975"/>
<path d="M167.994 49C167.436 49 166.922 48.9009 166.451 48.7026C165.98 48.4973 165.567 48.2106 165.212 47.8424C164.864 47.4743 164.593 47.0424 164.397 46.5468C164.209 46.0512 164.114 45.5061 164.114 44.9114C164.114 44.3237 164.209 43.7821 164.397 43.2865C164.593 42.7838 164.864 42.352 165.212 41.9909C165.567 41.6227 165.98 41.3395 166.451 41.1413C166.922 40.936 167.436 40.8333 167.994 40.8333C168.538 40.8333 169.027 40.9289 169.461 41.1201C169.896 41.3112 170.262 41.5555 170.559 41.8528C170.856 42.1502 171.07 42.4582 171.2 42.7768L170.537 43.0635C170.32 42.5891 169.99 42.2068 169.548 41.9166C169.114 41.6263 168.596 41.4811 167.994 41.4811C167.378 41.4811 166.828 41.6263 166.342 41.9166C165.864 42.2068 165.491 42.6104 165.223 43.1272C164.955 43.637 164.821 44.2317 164.821 44.9114C164.821 45.591 164.955 46.1893 165.223 46.7061C165.491 47.2229 165.864 47.6265 166.342 47.9168C166.828 48.2 167.378 48.3416 167.994 48.3416C168.596 48.3416 169.114 48.2 169.548 47.9168C169.99 47.6265 170.32 47.2442 170.537 46.7698L171.2 47.0566C171.07 47.3681 170.856 47.6725 170.559 47.9699C170.262 48.2672 169.896 48.515 169.461 48.7133C169.027 48.9044 168.538 49 167.994 49Z" fill="#113975"/>
<path d="M151.765 48.8726V40.9608H156.873V41.598H152.471V44.5821H156.655V45.2193H152.471V48.2354H156.873V48.8726H151.765Z" fill="#113975"/>
<path d="M142.77 48.8726V40.9608H145.487C146.001 40.9608 146.454 41.0599 146.845 41.2581C147.236 41.4564 147.541 41.736 147.758 42.0971C147.983 42.4582 148.095 42.8759 148.095 43.3502C148.095 43.9166 147.935 44.4016 147.617 44.8052C147.305 45.2016 146.885 45.4742 146.356 45.6229L148.269 48.8726H147.432L145.421 45.4105L146.008 45.7397H143.476V48.8726H142.77ZM143.476 45.1025H145.508C145.878 45.1025 146.204 45.0317 146.486 44.8901C146.769 44.7414 146.99 44.5361 147.149 44.2742C147.309 44.0051 147.388 43.6936 147.388 43.3396C147.388 42.9856 147.309 42.6812 147.149 42.4263C146.99 42.1644 146.769 41.9626 146.486 41.821C146.204 41.6723 145.878 41.598 145.508 41.598H143.476V45.1025Z" fill="#113975"/>
<path d="M135.909 49C135.351 49 134.862 48.8832 134.441 48.6495C134.021 48.4159 133.691 48.0938 133.452 47.6831C133.221 47.2654 133.105 46.7875 133.105 46.2495V40.9608H133.811V46.2707C133.811 46.6813 133.898 47.046 134.072 47.3645C134.253 47.6761 134.499 47.9203 134.811 48.0973C135.13 48.2743 135.496 48.3628 135.909 48.3628C136.322 48.3628 136.684 48.2743 136.995 48.0973C137.314 47.9203 137.56 47.6761 137.734 47.3645C137.908 47.046 137.995 46.6813 137.995 46.2707V40.9608H138.702V46.2495C138.702 46.7875 138.586 47.2654 138.354 47.6831C138.122 48.0938 137.796 48.4159 137.376 48.6495C136.955 48.8832 136.466 49 135.909 49Z" fill="#113975"/>
<path d="M126.935 48.8726V41.598H124.674V40.9608H129.891V41.598H127.641V48.8726H126.935Z" fill="#113975"/>
<path d="M120.708 48.8726V40.9608H121.415V48.8726H120.708Z" fill="#113975"/>
<path d="M110.63 48.8726V40.9608H111.228L116.129 47.8318H115.901V40.9608H116.608V48.8726H116.01L111.087 41.959H111.337V48.8726H110.63Z" fill="#113975"/>
<path d="M101.635 48.8726V40.9608H104.352C104.866 40.9608 105.319 41.0599 105.71 41.2581C106.102 41.4564 106.406 41.736 106.623 42.0971C106.848 42.4582 106.96 42.8759 106.96 43.3502C106.96 43.9166 106.801 44.4016 106.482 44.8052C106.17 45.2016 105.75 45.4742 105.221 45.6229L107.134 48.8726H106.297L104.287 45.4105L104.874 45.7397H102.341V48.8726H101.635ZM102.341 45.1025H104.374C104.743 45.1025 105.069 45.0317 105.352 44.8901C105.634 44.7414 105.855 44.5361 106.015 44.2742C106.174 44.0051 106.254 43.6936 106.254 43.3396C106.254 42.9856 106.174 42.6812 106.015 42.4263C105.855 42.1644 105.634 41.9626 105.352 41.821C105.069 41.6723 104.743 41.598 104.374 41.598H102.341V45.1025Z" fill="#113975"/>
<path d="M94.7738 49C94.2159 49 93.7269 48.8832 93.3067 48.6495C92.8864 48.4159 92.5568 48.0938 92.3177 47.6831C92.0858 47.2654 91.9699 46.7875 91.9699 46.2495V40.9608H92.6763V46.2707C92.6763 46.6813 92.7633 47.046 92.9372 47.3645C93.1183 47.6761 93.3646 47.9203 93.6762 48.0973C93.995 48.2743 94.3608 48.3628 94.7738 48.3628C95.1868 48.3628 95.5491 48.2743 95.8606 48.0973C96.1794 47.9203 96.4258 47.6761 96.5996 47.3645C96.7735 47.046 96.8605 46.6813 96.8605 46.2707V40.9608H97.5669V46.2495C97.5669 46.7875 97.451 47.2654 97.2191 47.6831C96.9873 48.0938 96.6612 48.4159 96.241 48.6495C95.8208 48.8832 95.3317 49 94.7738 49Z" fill="#113975"/>
<path d="M83.5699 48.8726V40.9608H88.5148V41.598H84.2763V44.5821H88.1344V45.2193H84.2763V48.8726H83.5699Z" fill="#113975"/>
<path d="M69.5698 48.8726V40.9608H72.1889C72.9859 40.9608 73.6742 41.1236 74.2538 41.4493C74.8407 41.7679 75.2935 42.2245 75.6123 42.8193C75.9311 43.4069 76.0905 44.1043 76.0905 44.9114C76.0905 45.7114 75.9311 46.4088 75.6123 47.0035C75.2935 47.5982 74.8407 48.0584 74.2538 48.3841C73.6742 48.7097 72.9859 48.8726 72.1889 48.8726H69.5698ZM70.2762 48.2354H72.1781C72.8229 48.2354 73.3808 48.0973 73.8517 47.8212C74.3299 47.5451 74.6994 47.1592 74.9603 46.6636C75.2283 46.161 75.3624 45.5769 75.3624 44.9114C75.3624 44.2388 75.2283 43.6547 74.9603 43.1591C74.6994 42.6635 74.3299 42.2812 73.8517 42.0121C73.3735 41.736 72.8157 41.598 72.1781 41.598H70.2762V48.2354Z" fill="#113975"/>
<path d="M60.8398 48.8726V40.9608H65.9477V41.598H61.5462V44.5821H65.7304V45.2193H61.5462V48.2354H65.9477V48.8726H60.8398Z" fill="#113975"/>
<path d="M54.6266 48.8726V41.598H52.3661V40.9608H57.5827V41.598H55.333V48.8726H54.6266Z" fill="#113975"/>
<path d="M46.9898 48.8726V41.598H44.7292V40.9608H49.9459V41.598H47.6962V48.8726H46.9898Z" fill="#113975"/>
<path d="M40.7629 48.8726V40.9608H41.4695V48.8726H40.7629Z" fill="#113975"/>
<path d="M32.3195 48.8726V40.9608H37.2644V41.598H33.0259V44.5821H36.884V45.2193H33.0259V48.8726H32.3195Z" fill="#113975"/>
<path d="M19.731 48.8726V40.9608H24.8389V41.598H20.4374V44.5821H24.6215V45.2193H20.4374V48.2354H24.8389V48.8726H19.731Z" fill="#113975"/>
<path d="M9.65302 48.8726V40.9608H10.3594V44.5609H14.924V40.9608H15.6304V48.8726H14.924V45.1981H10.3594V48.8726H9.65302Z" fill="#113975"/>
<path d="M3.43991 48.8726V41.598H1.17938V40.9608H6.39599V41.598H4.14633V48.8726H3.43991Z" fill="#113975"/>
</svg>
